<svg width="600" height="166" viewBox="0 0 600 166" fill="none" xmlns="http://www.w3.org/2000/svg">
<path d="M554.584 129.155C546.432 129.155 539.128 127.25 532.67 123.439C526.212 119.522 521.078 114.228 517.266 107.559C513.561 100.889 511.709 93.373 511.709 85.0097C511.709 76.5405 513.614 68.9711 517.425 62.3016C521.342 55.6321 526.636 50.3918 533.305 46.5807C539.975 42.6636 547.491 40.7051 555.854 40.7051C564.218 40.7051 571.681 42.6636 578.245 46.5807C584.914 50.3918 590.155 55.6321 593.966 62.3016C597.883 68.9711 599.894 76.5405 600 85.0097L595.077 88.8208C595.077 96.4431 593.278 103.324 589.678 109.465C586.185 115.499 581.368 120.316 575.228 123.915C569.193 127.409 562.312 129.155 554.584 129.155ZM555.854 118.04C561.994 118.04 567.447 116.61 572.21 113.752C577.08 110.894 580.891 106.977 583.644 102.001C586.502 96.9195 587.931 91.2557 587.931 85.0097C587.931 78.6578 586.502 72.994 583.644 68.0183C580.891 63.0427 577.08 59.1257 572.21 56.2673C567.447 53.3031 561.994 51.821 555.854 51.821C549.82 51.821 544.368 53.3031 539.498 56.2673C534.628 59.1257 530.764 63.0427 527.906 68.0183C525.048 72.994 523.618 78.6578 523.618 85.0097C523.618 91.2557 525.048 96.9195 527.906 102.001C530.764 106.977 534.628 110.894 539.498 113.752C544.368 116.61 549.82 118.04 555.854 118.04ZM593.807 128.361C592.007 128.361 590.525 127.832 589.361 126.773C588.196 125.609 587.614 124.127 587.614 122.327V95.1727L590.631 82.6277L600 85.0097V122.327C600 124.127 599.418 125.609 598.253 126.773C597.089 127.832 595.607 128.361 593.807 128.361Z" fill="#2557A1"/>
<path d="M455.023 74.8466C455.34 68.283 457.034 62.4075 460.104 57.2201C463.28 52.0327 467.356 47.9569 472.332 44.9927C477.413 42.0284 483.024 40.5463 489.164 40.5463C494.034 40.5463 497.792 41.2344 500.439 42.6107C503.085 43.9869 504.091 45.9984 503.456 48.645C503.033 50.233 502.291 51.2916 501.233 51.821C500.28 52.3503 499.063 52.562 497.58 52.4562C496.204 52.3503 494.616 52.2444 492.817 52.1386C486.888 51.6092 481.595 52.2444 476.937 54.0441C472.385 55.738 468.732 58.3846 465.98 61.984C463.333 65.5834 462.01 69.871 462.01 74.8466H455.023ZM455.976 128.361C454.07 128.361 452.588 127.832 451.529 126.773C450.471 125.715 449.941 124.233 449.941 122.327V47.5334C449.941 45.6279 450.471 44.1457 451.529 43.0871C452.588 42.0284 454.07 41.4991 455.976 41.4991C457.881 41.4991 459.363 42.0284 460.422 43.0871C461.48 44.1457 462.01 45.6279 462.01 47.5334V122.327C462.01 124.233 461.48 125.715 460.422 126.773C459.363 127.832 457.881 128.361 455.976 128.361Z" fill="#2557A1"/>
<path d="M343.859 165.52C341.954 165.52 340.419 164.938 339.254 163.773C338.196 162.715 337.666 161.233 337.666 159.327V84.3745C337.772 76.117 339.731 68.7065 343.542 62.1428C347.459 55.4733 352.699 50.233 359.263 46.4219C365.932 42.6107 373.396 40.7051 381.653 40.7051C390.122 40.7051 397.692 42.6636 404.361 46.5807C411.031 50.3918 416.271 55.6321 420.082 62.3016C423.999 68.9711 425.958 76.5405 425.958 85.0097C425.958 93.373 424.052 100.889 420.241 107.559C416.536 114.228 411.454 119.522 404.996 123.439C398.539 127.25 391.234 129.155 383.082 129.155C375.989 129.155 369.532 127.673 363.709 124.709C357.992 121.639 353.387 117.616 349.894 112.64V159.327C349.894 161.233 349.311 162.715 348.147 163.773C347.088 164.938 345.659 165.52 343.859 165.52ZM381.653 118.04C387.793 118.04 393.298 116.61 398.168 113.752C403.038 110.894 406.849 106.977 409.602 102.001C412.46 96.9195 413.889 91.2557 413.889 85.0097C413.889 78.6578 412.46 72.994 409.602 68.0183C406.849 63.0427 403.038 59.1257 398.168 56.2673C393.298 53.3031 387.793 51.821 381.653 51.821C375.619 51.821 370.167 53.3031 365.297 56.2673C360.427 59.1257 356.616 63.0427 353.864 68.0183C351.111 72.994 349.735 78.6578 349.735 85.0097C349.735 91.2557 351.111 96.9195 353.864 102.001C356.616 106.977 360.427 110.894 365.297 113.752C370.167 116.61 375.619 118.04 381.653 118.04Z" fill="#2557A1"/>
<path d="M269.739 129.155C261.27 129.155 253.701 127.25 247.031 123.439C240.362 119.628 235.121 114.387 231.31 107.718C227.499 101.048 225.594 93.4789 225.594 85.0097C225.594 76.4346 227.499 68.8123 231.31 62.1428C235.121 55.4733 240.362 50.233 247.031 46.4219C253.701 42.6107 261.27 40.7051 269.739 40.7051C278.209 40.7051 285.725 42.6107 292.289 46.4219C298.958 50.233 304.198 55.4733 308.01 62.1428C311.821 68.8123 313.779 76.4346 313.885 85.0097C313.885 93.4789 311.927 101.048 308.01 107.718C304.198 114.387 298.958 119.628 292.289 123.439C285.725 127.25 278.209 129.155 269.739 129.155ZM269.739 118.04C275.88 118.04 281.385 116.61 286.254 113.752C291.124 110.894 294.935 106.977 297.688 102.001C300.44 97.0254 301.816 91.3616 301.816 85.0097C301.816 78.6578 300.44 72.994 297.688 68.0183C294.935 62.9368 291.124 58.9669 286.254 56.1085C281.385 53.2502 275.88 51.821 269.739 51.821C263.599 51.821 258.094 53.2502 253.224 56.1085C248.355 58.9669 244.491 62.9368 241.632 68.0183C238.88 72.994 237.503 78.6578 237.503 85.0097C237.503 91.3616 238.88 97.0254 241.632 102.001C244.491 106.977 248.355 110.894 253.224 113.752C258.094 116.61 263.599 118.04 269.739 118.04Z" fill="#2557A1"/>
<path d="M168.908 74.8466C169.225 68.283 170.919 62.4075 173.989 57.2201C177.165 52.0327 181.241 47.9569 186.217 44.9927C191.298 42.0284 196.909 40.5463 203.049 40.5463C207.919 40.5463 211.677 41.2344 214.324 42.6107C216.971 43.9869 217.976 45.9984 217.341 48.645C216.918 50.233 216.177 51.2916 215.118 51.821C214.165 52.3503 212.948 52.562 211.466 52.4562C210.089 52.3503 208.501 52.2444 206.702 52.1386C200.773 51.6092 195.48 52.2444 190.822 54.0441C186.27 55.738 182.617 58.3846 179.865 61.984C177.218 65.5834 175.895 69.871 175.895 74.8466H168.908ZM169.861 128.361C167.955 128.361 166.473 127.832 165.414 126.773C164.356 125.715 163.826 124.233 163.826 122.327V47.5334C163.826 45.6279 164.356 44.1457 165.414 43.0871C166.473 42.0284 167.955 41.4991 169.861 41.4991C171.766 41.4991 173.248 42.0284 174.307 43.0871C175.366 44.1457 175.895 45.6279 175.895 47.5334V122.327C175.895 124.233 175.366 125.715 174.307 126.773C173.248 127.832 171.766 128.361 169.861 128.361Z" fill="#2557A1"/>
<path d="M71.459 0C110.925 1.64931e-05 142.918 31.9933 142.918 71.459C142.918 110.925 110.925 142.918 71.459 142.918C31.9933 142.918 1.64952e-05 110.925 0 71.459C0 31.9933 31.9933 0 71.459 0ZM71.459 31.7598C49.5336 31.7598 31.7598 49.5336 31.7598 71.459C31.7598 93.3844 49.5336 111.158 71.459 111.158C93.3843 111.158 111.158 93.3843 111.158 71.459C111.158 49.5336 93.3844 31.7598 71.459 31.7598Z" fill="#32AFA4"/>
<mask id="mask0_2_36" style="mask-type:alpha" maskUnits="userSpaceOnUse" x="0" y="0" width="143" height="143">
<path d="M71.459 0C110.925 1.64931e-05 142.918 31.9933 142.918 71.459C142.918 110.925 110.925 142.918 71.459 142.918C31.9933 142.918 1.64952e-05 110.925 0 71.459C0 31.9933 31.9933 0 71.459 0ZM71.459 31.7598C49.5336 31.7598 31.7598 49.5336 31.7598 71.459C31.7598 93.3844 49.5336 111.158 71.459 111.158C93.3843 111.158 111.158 93.3843 111.158 71.459C111.158 49.5336 93.3844 31.7598 71.459 31.7598Z" fill="#32AFA4"/>
</mask>
<g mask="url(#mask0_2_36)">
<rect x="71.459" y="71.459" width="78.0755" height="78.0755" fill="#F8BA36"/>
</g>
</svg>
